<svg width="500" height="408" viewBox="0 0 500 408" fill="none" xmlns="http://www.w3.org/2000/svg">
<rect width="500" height="408" fill="black"/>
<path d="M196.5 149.13C196.5 149.13 194.732 103.773 242.813 105.817C257.911 106.459 257.846 125.008 270.591 133.5C284.521 142.78 298.718 137.241 310.5 149.13C339.124 178.01 215.787 212.619 242.813 243C265.775 268.814 340.5 215.25 340.5 215.25" stroke="#D60909" stroke-width="4.5"/>
<path d="M87 267.63C87 267.63 79.4192 203.456 127.5 205.5C142.598 206.142 130.716 273 175.5 257.25C220.284 241.5 91.8222 207.44 78 198C47.25 177 97.5 91.5 131.25 113.25C165 135 159.873 67.355 184.5 53.25C198.095 45.4639 219 46.5 219 46.5" stroke="#D60909" stroke-width="4.5"/>
<path d="M268.125 318.255C268.125 318.255 268.982 272.898 317.063 274.942C346.232 276.182 352.476 321.476 385.5 325.875C442.895 333.52 461.665 272.37 459.75 214.5C458.172 166.824 410.25 162 410.25 112.5C410.25 63 342.75 47.25 342.75 47.25" stroke="#D60909" stroke-width="4.5"/>
<path d="M322.287 349.338L310.987 319.715C308.279 312.615 301.097 307.875 293.046 307.875H250.252C242.201 307.875 235.019 312.614 232.311 319.715L221.011 349.338C218.175 356.773 219.384 365.035 224.251 371.481C227.779 376.153 235.171 376.177 238.734 371.528L249.956 356.883C251.348 355.066 253.589 353.989 255.976 353.989H287.322C289.709 353.989 291.95 355.066 293.342 356.883L304.564 371.528C308.126 376.177 315.519 376.153 319.047 371.481C323.914 365.035 325.123 356.773 322.287 349.338Z" fill="#407093"/>
<path d="M322.287 349.338L310.987 319.715C308.279 312.615 301.097 307.875 293.046 307.875H275.516C283.567 307.875 290.749 312.614 293.457 319.715L304.756 349.338C307.294 355.992 306.59 363.307 302.926 369.391L304.564 371.528C308.127 376.177 315.52 376.153 319.047 371.481C323.914 365.035 325.123 356.773 322.287 349.338Z" fill="#2B4D66"/>
<path d="M255.644 320.22H251.612C251.378 320.22 251.189 320.042 251.189 319.824V316.048C251.189 315.391 250.62 314.858 249.919 314.858H245.572C244.871 314.858 244.302 315.391 244.302 316.048V319.824C244.302 320.043 244.113 320.22 243.879 320.22H239.847C239.145 320.22 238.577 320.753 238.577 321.409V325.479C238.577 326.136 239.146 326.669 239.847 326.669H243.879C244.113 326.669 244.302 326.846 244.302 327.065V330.841C244.302 331.498 244.871 332.03 245.572 332.03H249.918C250.62 332.03 251.188 331.498 251.188 330.841V327.065C251.188 326.846 251.378 326.669 251.612 326.669H255.644C256.345 326.669 256.914 326.136 256.914 325.479V321.409C256.914 320.753 256.345 320.22 255.644 320.22Z" fill="#DAE7EF"/>
<path d="M255.644 320.22H254.154V322.895C254.154 323.551 253.585 324.084 252.884 324.084H249.91C249.092 324.084 248.429 324.705 248.429 325.471V328.256C248.429 328.913 247.86 329.446 247.159 329.446H244.302V330.841C244.302 331.498 244.871 332.03 245.573 332.03H249.919C250.62 332.03 251.189 331.498 251.189 330.841V327.065C251.189 326.846 251.378 326.669 251.612 326.669H255.644C256.346 326.669 256.914 326.136 256.914 325.479V321.409C256.914 320.753 256.345 320.22 255.644 320.22Z" fill="#C1D5E4"/>
<path d="M283.448 348.099C287.703 348.099 291.152 344.868 291.152 340.883C291.152 336.899 287.703 333.668 283.448 333.668C279.193 333.668 275.743 336.899 275.743 340.883C275.743 344.868 279.193 348.099 283.448 348.099Z" fill="#DAE7EF"/>
<path d="M259.875 348.099C264.13 348.099 267.58 344.868 267.58 340.883C267.58 336.899 264.13 333.668 259.875 333.668C255.62 333.668 252.17 336.899 252.17 340.883C252.17 344.868 255.62 348.099 259.875 348.099Z" fill="#DAE7EF"/>
<path d="M285.351 333.89C285.505 334.46 285.588 335.057 285.588 335.672C285.588 339.657 282.139 342.888 277.884 342.888C277.227 342.888 276.589 342.81 275.981 342.665C276.828 345.788 279.85 348.099 283.448 348.099C287.703 348.099 291.152 344.868 291.152 340.883C291.152 337.514 288.685 334.684 285.351 333.89Z" fill="#C1D5E4"/>
<path d="M261.778 333.89C261.933 334.46 262.015 335.057 262.015 335.672C262.015 339.657 258.566 342.888 254.311 342.888C253.654 342.888 253.016 342.81 252.408 342.665C253.255 345.788 256.277 348.099 259.875 348.099C264.13 348.099 267.58 344.868 267.58 340.883C267.58 337.514 265.113 334.684 261.778 333.89Z" fill="#C1D5E4"/>
<path d="M271.683 325.978C274.213 325.978 276.264 324.057 276.264 321.687C276.264 319.318 274.213 317.397 271.683 317.397C269.152 317.397 267.101 319.318 267.101 321.687C267.101 324.057 269.152 325.978 271.683 325.978Z" fill="#DAE7EF"/>
<path d="M273.482 317.741C273.718 318.258 273.849 318.828 273.849 319.426C273.849 321.795 271.798 323.716 269.268 323.716C268.629 323.716 268.021 323.593 267.468 323.372C268.168 324.904 269.791 325.978 271.683 325.978C274.213 325.978 276.264 324.057 276.264 321.687C276.264 319.916 275.118 318.396 273.482 317.741Z" fill="#C1D5E4"/>
<path d="M295.465 315.704C294.044 315.704 292.893 316.782 292.893 318.112C292.893 319.442 294.044 320.521 295.465 320.521C296.885 320.521 298.037 319.442 298.037 318.112C298.037 316.782 296.885 315.704 295.465 315.704Z" fill="#F6E266"/>
<path d="M295.465 331.225C296.885 331.225 298.037 330.147 298.037 328.817C298.037 327.487 296.885 326.408 295.465 326.408C294.044 326.408 292.893 327.487 292.893 328.817C292.893 330.147 294.044 331.225 295.465 331.225Z" fill="#86F1A7"/>
<path d="M301.18 325.873C302.601 325.873 303.752 324.795 303.752 323.464C303.752 322.134 302.601 321.056 301.18 321.056C299.76 321.056 298.608 322.134 298.608 323.464C298.608 324.795 299.76 325.873 301.18 325.873Z" fill="#DD5790"/>
<path d="M292.321 323.465C292.321 322.134 291.17 321.056 289.749 321.056C288.329 321.056 287.177 322.134 287.177 323.465C287.177 324.795 288.329 325.873 289.749 325.873C291.17 325.873 292.321 324.795 292.321 323.465Z" fill="#61A2F9"/>
<path d="M283.448 349.529C278.357 349.529 274.215 345.651 274.215 340.883C274.215 336.116 278.357 332.237 283.448 332.237C288.538 332.237 292.68 336.116 292.68 340.883C292.68 345.651 288.539 349.529 283.448 349.529ZM283.448 335.099C280.042 335.099 277.271 337.694 277.271 340.883C277.271 344.073 280.042 346.668 283.448 346.668C286.853 346.668 289.625 344.073 289.625 340.883C289.625 337.694 286.854 335.099 283.448 335.099Z" fill="#DD5790"/>
<path d="M259.875 349.529C254.784 349.529 250.643 345.651 250.643 340.883C250.643 336.116 254.784 332.237 259.875 332.237C264.966 332.237 269.107 336.116 269.107 340.883C269.107 345.651 264.966 349.529 259.875 349.529ZM259.875 335.099C256.469 335.099 253.698 337.694 253.698 340.883C253.698 344.073 256.469 346.668 259.875 346.668C263.281 346.668 266.052 344.073 266.052 340.883C266.052 337.694 263.281 335.099 259.875 335.099Z" fill="#DD5790"/>
<path d="M228.694 196.667C226.25 196.705 218.466 196.205 211.222 194.372C202.754 192.232 192.235 192.24 183.764 194.372C176.463 196.21 169.655 196.706 166.291 196.667C153.471 196.515 143.825 184.685 143.825 172.583C143.825 159.339 155.619 148.5 170.036 148.5H224.952C239.366 148.502 250.753 159.339 250.753 172.583C250.753 184.685 241.514 196.467 228.694 196.667Z" fill="#CBD4D8"/>
<path d="M194.475 155.396H203.165" stroke="#AFB6BB" stroke-width="0.75" stroke-miterlimit="10" stroke-linecap="round"/>
<path d="M211.359 177.804C214.467 177.804 216.986 175.489 216.986 172.633C216.986 169.777 214.467 167.462 211.359 167.462C208.25 167.462 205.731 169.777 205.731 172.633C205.731 175.489 208.25 177.804 211.359 177.804Z" fill="#43B05C"/>
<path d="M237.622 177.804C240.73 177.804 243.249 175.489 243.249 172.633C243.249 169.777 240.73 167.462 237.622 167.462C234.513 167.462 231.994 169.777 231.994 172.633C231.994 175.489 234.513 177.804 237.622 177.804Z" fill="#DD352E"/>
<path d="M224.49 189.87C227.598 189.87 230.118 187.555 230.118 184.699C230.118 181.843 227.598 179.528 224.49 179.528C221.382 179.528 218.862 181.843 218.862 184.699C218.862 187.555 221.382 189.87 224.49 189.87Z" fill="#EBBA16"/>
<path d="M224.49 165.739C227.598 165.739 230.118 163.423 230.118 160.568C230.118 157.712 227.598 155.396 224.49 155.396C221.382 155.396 218.862 157.712 218.862 160.568C218.862 163.423 221.382 165.739 224.49 165.739Z" fill="#366DB6"/>
<path d="M185.096 167.462H177.592V160.568H166.336V167.462H158.833V177.804H166.336V184.699H177.592V177.804H185.096V167.462Z" fill="#38454F"/>
<path d="M406.023 182.712H394.349H392.531C389.132 187.534 383.371 190.707 376.835 190.707C370.3 190.707 364.539 187.534 361.14 182.712H359.323H349.513C344.042 182.712 339.608 186.956 339.608 192.191V246.271C339.608 251.507 344.042 255.75 349.513 255.75H406.023C411.493 255.75 415.927 251.507 415.927 246.271V192.191C415.927 186.956 411.491 182.712 406.023 182.712Z" fill="#AFB6BB"/>
<path d="M376.837 190.709C374.894 190.709 373.017 190.426 371.253 189.905V216.849C371.253 219.801 373.753 222.194 376.837 222.194C379.921 222.194 382.421 219.801 382.421 216.849V189.904C380.655 190.426 378.78 190.709 376.837 190.709Z" fill="#E7ECED"/>
<path d="M353.07 246.843C355.915 246.843 358.221 244.636 358.221 241.914C358.221 239.191 355.915 236.985 353.07 236.985C350.226 236.985 347.92 239.191 347.92 241.914C347.92 244.636 350.226 246.843 353.07 246.843Z" fill="#DD352E"/>
<path d="M393.59 248.624C401.821 248.624 408.481 242.25 408.481 234.373" stroke="#E7ECED" stroke-width="0.75" stroke-miterlimit="10" stroke-linecap="round"/>
<path d="M382.421 194.046V216.849C382.421 219.801 379.922 222.194 376.837 222.194C373.753 222.194 371.253 219.801 371.253 216.849V194.046C360.585 196.461 352.638 205.612 352.638 216.559C352.638 229.35 363.472 239.717 376.837 239.717C390.202 239.717 401.036 229.35 401.036 216.559C401.036 205.612 393.087 196.461 382.421 194.046Z" fill="#546A79"/>
<path d="M382.421 199.919V216.849C382.421 219.801 379.921 222.194 376.837 222.194C373.753 222.194 371.253 219.801 371.253 216.849V199.919C364.312 202.153 359.304 208.418 359.304 215.814C359.304 225.081 367.154 232.593 376.837 232.593C386.52 232.593 394.37 225.081 394.37 215.814C394.368 208.418 389.363 202.153 382.421 199.919Z" fill="#38454F"/>
<path d="M376.837 190.709C387.285 190.709 395.755 182.603 395.755 172.604C395.755 162.606 387.285 154.5 376.837 154.5C366.389 154.5 357.919 162.606 357.919 172.604C357.919 182.603 366.389 190.709 376.837 190.709Z" fill="#DD352E"/>
<path d="M365.669 173.805C364.641 173.805 363.807 173.009 363.807 172.024C363.807 166.129 368.816 161.335 374.976 161.335C376.003 161.335 376.837 162.132 376.837 163.117C376.837 164.102 376.003 164.898 374.976 164.898C370.869 164.898 367.53 168.094 367.53 172.024C367.53 173.009 366.696 173.805 365.669 173.805Z" fill="#ED7161"/>
<path d="M87.3265 264.879C81.5706 264.879 76.0472 266.976 71.7894 270.708C71.0237 270.294 70.2295 269.926 69.4121 269.608C64.0571 267.524 58.0119 267.742 52.8261 270.208C47.6596 272.665 43.7321 277.169 42.0418 282.571L31.8389 311.588C30.4636 315.499 30.5605 319.771 32.1118 323.618C33.6631 327.464 36.5681 330.636 40.2915 332.547C42.8546 333.863 45.6252 334.5 48.3704 334.5C53.2216 334.5 57.9943 332.511 61.4034 328.762L78.9649 309.453C81.0985 307.107 84.1543 305.762 87.3494 305.762L92.9816 286.586L87.3494 264.88C87.3417 264.88 87.3342 264.879 87.3265 264.879Z" fill="#EDF5FF"/>
<path d="M142.86 311.588L132.657 282.572C130.966 277.169 127.039 272.665 121.872 270.209C116.687 267.743 110.641 267.524 105.287 269.609C104.459 269.931 103.656 270.303 102.881 270.724C98.6269 266.987 93.1064 264.886 87.3494 264.88V305.762C90.5442 305.762 93.6003 307.108 95.7336 309.453L113.295 328.762C118.634 334.632 127.315 336.188 134.407 332.547C138.13 330.635 141.035 327.464 142.587 323.617C144.138 319.771 144.235 315.499 142.86 311.588Z" fill="#D6E8FD"/>
<path d="M56.9634 284.478H63.5505V290.973H56.9634V284.478Z" fill="#FED943"/>
<path d="M56.9634 297.468H63.5505V303.964H56.9634V297.468Z" fill="#7D89E5"/>
<path d="M63.5505 290.973H70.1377V297.468H63.5505V290.973Z" fill="#83D947"/>
<path d="M50.3762 290.973H56.9634V297.468H50.3762V290.973Z" fill="#CE0225"/>
<path d="M115.169 303.964C109.721 303.964 105.288 299.593 105.288 294.221C105.288 288.848 109.721 284.478 115.169 284.478C120.618 284.478 125.05 288.848 125.05 294.221C125.05 299.593 120.618 303.964 115.169 303.964Z" fill="#C12020"/>
<path d="M79.6031 277.835V284.33H87.3494L89.5403 280.713L87.3494 277.835H79.6031Z" fill="#D6E8FD"/>
<path d="M87.3494 277.835H95.0497V284.33H87.3494V277.835Z" fill="#C12020"/>
<path d="M84.033 311.869H87.3494L89.1432 302.378L87.3494 292.922H84.033V311.869Z" fill="#384E75"/>
<path d="M87.3494 292.922H90.6201V311.869H87.3494V292.922Z" fill="#C12020"/>
<path d="M332.918 74.7347H322.584L320.295 72.5613L318.007 46.93L320.295 19.1252H332.918C339.94 19.1252 345.633 24.5315 345.633 31.2004V60.4859C345.633 67.155 339.94 74.7347 332.918 74.7347Z" fill="#A4CCFF"/>
<path d="M345.633 60.4859V64.833C345.633 71.502 339.94 76.9082 332.918 76.9082H320.295L318.007 74.7348L320.295 72.5613H332.918C339.94 72.5613 345.633 67.1551 345.633 60.4859Z" fill="#8BB3EA"/>
<path d="M232.218 74.7355H242.552L244.84 72.5621L247.129 46.9308L244.84 19.126H232.218C225.196 19.1258 219.503 24.5323 219.503 31.2012V60.4867C219.503 67.1558 225.196 74.7355 232.218 74.7355Z" fill="#EACC73"/>
<path d="M219.503 60.4858V64.833C219.503 71.5019 225.196 76.9082 232.218 76.9082H244.84L247.129 74.7347L244.84 72.5613H232.218C225.196 72.5613 219.503 67.155 219.503 60.4858V60.4858Z" fill="#E3BD57"/>
<path d="M320.295 72.5613L282.568 74.7347L244.841 72.5613V19.125H320.295V72.5613Z" fill="#454D58"/>
<path d="M244.841 72.5613H320.295V76.9084H244.841V72.5613Z" fill="#3C434C"/>
<path d="M312.615 65.0572L282.568 67.2309L252.52 65.0574V27.8366C252.52 27.1698 253.089 26.6292 253.792 26.6292H311.344C312.046 26.6292 312.615 27.1698 312.615 27.8366V65.0572Z" fill="#BED8FB"/>
<path d="M253.792 69.4043H311.344C312.046 69.4043 312.615 68.8636 312.615 68.1968V65.0574H252.52V68.1968C252.52 68.8636 253.089 69.4043 253.792 69.4043Z" fill="#A3CAF7"/>
<path d="M227.854 34.3097C227.854 36.0154 227.854 39.0901 232.333 39.0901C236.813 39.0901 236.813 36.0154 236.813 34.3097C235.979 32.7635 234.288 31.7027 232.333 31.7027C230.378 31.7027 228.688 32.7632 227.854 34.3097Z" fill="#454D58"/>
<path d="M232.333 36.9164C230.378 36.9164 228.688 35.8559 227.854 34.3097C227.502 34.9624 227.3 35.6996 227.3 36.4831C227.3 39.1233 229.553 41.2636 232.333 41.2636C235.113 41.2636 237.367 39.1233 237.367 36.4831C237.367 35.6996 237.164 34.9622 236.813 34.3097C235.979 35.8559 234.288 36.9164 232.333 36.9164Z" fill="#3C434C"/>
<path d="M328.646 34.3097C328.646 36.0154 328.646 39.0901 333.125 39.0901C337.605 39.0901 337.605 36.0154 337.605 34.3097C336.771 32.7635 335.08 31.7027 333.125 31.7027C331.171 31.7027 329.48 32.7632 328.646 34.3097Z" fill="#454D58"/>
<path d="M333.125 36.9164C331.17 36.9164 329.48 35.8559 328.646 34.3097C328.294 34.9624 328.092 35.6996 328.092 36.4831C328.092 39.1233 330.345 41.2636 333.125 41.2636C335.905 41.2636 338.159 39.1233 338.159 36.4831C338.159 35.6996 337.956 34.9622 337.605 34.3097C336.771 35.8559 335.08 36.9164 333.125 36.9164Z" fill="#3C434C"/>
<path d="M328.646 57.3768C328.646 59.0826 328.646 62.1572 333.125 62.1572C337.605 62.1572 337.605 59.0826 337.605 57.3768C336.771 55.8306 335.08 54.7701 333.125 54.7701C331.171 54.7698 329.48 55.8304 328.646 57.3768Z" fill="#454D58"/>
<path d="M333.125 59.9836C331.17 59.9836 329.48 58.923 328.646 57.3768C328.294 58.0293 328.092 58.7668 328.092 59.5503C328.092 62.1905 330.345 64.3307 333.125 64.3307C335.905 64.3307 338.159 62.1905 338.159 59.5503C338.159 58.7668 337.957 58.0293 337.605 57.3768C336.771 58.923 335.08 59.9836 333.125 59.9836Z" fill="#3C434C"/>
<path d="M228.408 57.3768C228.408 59.0826 228.408 62.1572 232.888 62.1572C237.367 62.1572 237.367 59.0826 237.367 57.3768C236.533 55.8306 234.843 54.7701 232.888 54.7701C230.933 54.7698 229.242 55.8304 228.408 57.3768Z" fill="#454D58"/>
<path d="M232.888 59.9836C230.933 59.9836 229.242 58.923 228.408 57.3768C228.056 58.0293 227.854 58.7668 227.854 59.5503C227.854 62.1905 230.108 64.3307 232.888 64.3307C235.668 64.3307 237.921 62.1905 237.921 59.5503C237.921 58.7668 237.719 58.0293 237.367 57.3768C236.533 58.923 234.842 59.9836 232.888 59.9836Z" fill="#3C434C"/>
</svg>
